<mxfile host="app.diagrams.net" modified="2022-06-04T03:10:36.979Z" agent="5.0 (Windows NT 10.0; Win64; x64) AppleWebKit/537.36 (KHTML, like Gecko) Chrome/102.0.5005.63 Safari/537.36 Edg/102.0.1245.30" etag="igZhZncM3kjnOaNW_oqv" version="19.0.0" type="github">
  <diagram id="Tf9iOyFnidv_S-mVYkXV" name="Page-1">
    <mxGraphModel dx="1422" dy="772" grid="1" gridSize="10" guides="1" tooltips="1" connect="1" arrows="1" fold="1" page="1" pageScale="1" pageWidth="850" pageHeight="1100" math="0" shadow="0">
      <root>
        <mxCell id="0" />
        <mxCell id="1" parent="0" />
        <mxCell id="sSMObU6DCJ1RL4eeO6b6-1" value="Usuarios" style="rounded=0;whiteSpace=wrap;html=1;" vertex="1" parent="1">
          <mxGeometry x="600" y="660" width="120" height="60" as="geometry" />
        </mxCell>
        <mxCell id="sSMObU6DCJ1RL4eeO6b6-2" value="Cliente" style="rounded=0;whiteSpace=wrap;html=1;" vertex="1" parent="1">
          <mxGeometry x="120" y="260" width="120" height="60" as="geometry" />
        </mxCell>
        <mxCell id="sSMObU6DCJ1RL4eeO6b6-3" value="Tienda" style="rounded=0;whiteSpace=wrap;html=1;" vertex="1" parent="1">
          <mxGeometry x="600" y="220" width="120" height="60" as="geometry" />
        </mxCell>
        <mxCell id="sSMObU6DCJ1RL4eeO6b6-38" style="edgeStyle=orthogonalEdgeStyle;rounded=0;orthogonalLoop=1;jettySize=auto;html=1;entryX=0;entryY=0.5;entryDx=0;entryDy=0;strokeColor=default;" edge="1" parent="1" source="sSMObU6DCJ1RL4eeO6b6-4" target="sSMObU6DCJ1RL4eeO6b6-9">
          <mxGeometry relative="1" as="geometry">
            <Array as="points">
              <mxPoint x="410" y="420" />
              <mxPoint x="410" y="260" />
            </Array>
          </mxGeometry>
        </mxCell>
        <mxCell id="sSMObU6DCJ1RL4eeO6b6-4" value="Facturas" style="rounded=0;whiteSpace=wrap;html=1;" vertex="1" parent="1">
          <mxGeometry x="520" y="410" width="120" height="60" as="geometry" />
        </mxCell>
        <mxCell id="sSMObU6DCJ1RL4eeO6b6-34" style="edgeStyle=orthogonalEdgeStyle;rounded=0;orthogonalLoop=1;jettySize=auto;html=1;entryX=0;entryY=0.5;entryDx=0;entryDy=0;strokeColor=default;" edge="1" parent="1" source="sSMObU6DCJ1RL4eeO6b6-6" target="sSMObU6DCJ1RL4eeO6b6-11">
          <mxGeometry relative="1" as="geometry" />
        </mxCell>
        <mxCell id="sSMObU6DCJ1RL4eeO6b6-36" style="edgeStyle=orthogonalEdgeStyle;rounded=0;orthogonalLoop=1;jettySize=auto;html=1;entryX=0.5;entryY=1;entryDx=0;entryDy=0;strokeColor=default;" edge="1" parent="1" source="sSMObU6DCJ1RL4eeO6b6-6" target="sSMObU6DCJ1RL4eeO6b6-10">
          <mxGeometry relative="1" as="geometry" />
        </mxCell>
        <mxCell id="sSMObU6DCJ1RL4eeO6b6-6" value="Personal" style="rounded=0;whiteSpace=wrap;html=1;" vertex="1" parent="1">
          <mxGeometry x="270" y="670" width="120" height="60" as="geometry" />
        </mxCell>
        <mxCell id="sSMObU6DCJ1RL4eeO6b6-7" value="Productos" style="rounded=0;whiteSpace=wrap;html=1;" vertex="1" parent="1">
          <mxGeometry x="120" y="430" width="120" height="60" as="geometry" />
        </mxCell>
        <mxCell id="sSMObU6DCJ1RL4eeO6b6-39" style="edgeStyle=orthogonalEdgeStyle;rounded=0;orthogonalLoop=1;jettySize=auto;html=1;entryX=0;entryY=0.5;entryDx=0;entryDy=0;strokeColor=default;" edge="1" parent="1" source="sSMObU6DCJ1RL4eeO6b6-9" target="sSMObU6DCJ1RL4eeO6b6-3">
          <mxGeometry relative="1" as="geometry" />
        </mxCell>
        <mxCell id="sSMObU6DCJ1RL4eeO6b6-9" value="Tiene" style="rhombus;whiteSpace=wrap;html=1;" vertex="1" parent="1">
          <mxGeometry x="430" y="220" width="80" height="80" as="geometry" />
        </mxCell>
        <mxCell id="sSMObU6DCJ1RL4eeO6b6-37" style="edgeStyle=orthogonalEdgeStyle;rounded=0;orthogonalLoop=1;jettySize=auto;html=1;entryX=0;entryY=0.5;entryDx=0;entryDy=0;strokeColor=default;" edge="1" parent="1" source="sSMObU6DCJ1RL4eeO6b6-10" target="sSMObU6DCJ1RL4eeO6b6-4">
          <mxGeometry relative="1" as="geometry" />
        </mxCell>
        <mxCell id="sSMObU6DCJ1RL4eeO6b6-51" style="edgeStyle=orthogonalEdgeStyle;rounded=0;orthogonalLoop=1;jettySize=auto;html=1;entryX=1;entryY=1;entryDx=0;entryDy=0;strokeColor=default;" edge="1" parent="1" source="sSMObU6DCJ1RL4eeO6b6-10" target="sSMObU6DCJ1RL4eeO6b6-7">
          <mxGeometry relative="1" as="geometry" />
        </mxCell>
        <mxCell id="sSMObU6DCJ1RL4eeO6b6-10" value="Dirige" style="rhombus;whiteSpace=wrap;html=1;" vertex="1" parent="1">
          <mxGeometry x="290" y="510" width="80" height="80" as="geometry" />
        </mxCell>
        <mxCell id="sSMObU6DCJ1RL4eeO6b6-35" style="edgeStyle=orthogonalEdgeStyle;rounded=0;orthogonalLoop=1;jettySize=auto;html=1;entryX=-0.017;entryY=0.383;entryDx=0;entryDy=0;entryPerimeter=0;strokeColor=default;" edge="1" parent="1" source="sSMObU6DCJ1RL4eeO6b6-11" target="sSMObU6DCJ1RL4eeO6b6-1">
          <mxGeometry relative="1" as="geometry" />
        </mxCell>
        <mxCell id="sSMObU6DCJ1RL4eeO6b6-11" value="Tiene" style="rhombus;whiteSpace=wrap;html=1;" vertex="1" parent="1">
          <mxGeometry x="460" y="580" width="80" height="80" as="geometry" />
        </mxCell>
        <mxCell id="sSMObU6DCJ1RL4eeO6b6-20" style="edgeStyle=orthogonalEdgeStyle;rounded=0;orthogonalLoop=1;jettySize=auto;html=1;entryX=0;entryY=0.25;entryDx=0;entryDy=0;" edge="1" parent="1" source="sSMObU6DCJ1RL4eeO6b6-12" target="sSMObU6DCJ1RL4eeO6b6-6">
          <mxGeometry relative="1" as="geometry" />
        </mxCell>
        <mxCell id="sSMObU6DCJ1RL4eeO6b6-12" value="id_pers" style="ellipse;whiteSpace=wrap;html=1;" vertex="1" parent="1">
          <mxGeometry x="50" y="740" width="90" height="60" as="geometry" />
        </mxCell>
        <mxCell id="sSMObU6DCJ1RL4eeO6b6-21" style="edgeStyle=orthogonalEdgeStyle;rounded=0;orthogonalLoop=1;jettySize=auto;html=1;entryX=0.133;entryY=0.983;entryDx=0;entryDy=0;entryPerimeter=0;" edge="1" parent="1" source="sSMObU6DCJ1RL4eeO6b6-13" target="sSMObU6DCJ1RL4eeO6b6-6">
          <mxGeometry relative="1" as="geometry">
            <Array as="points">
              <mxPoint x="240" y="840" />
              <mxPoint x="240" y="760" />
              <mxPoint x="286" y="760" />
            </Array>
          </mxGeometry>
        </mxCell>
        <mxCell id="sSMObU6DCJ1RL4eeO6b6-13" value="pers_name" style="ellipse;whiteSpace=wrap;html=1;" vertex="1" parent="1">
          <mxGeometry x="110" y="810" width="90" height="60" as="geometry" />
        </mxCell>
        <mxCell id="sSMObU6DCJ1RL4eeO6b6-22" style="edgeStyle=orthogonalEdgeStyle;rounded=0;orthogonalLoop=1;jettySize=auto;html=1;entryX=0.425;entryY=0.983;entryDx=0;entryDy=0;entryPerimeter=0;" edge="1" parent="1" source="sSMObU6DCJ1RL4eeO6b6-14" target="sSMObU6DCJ1RL4eeO6b6-6">
          <mxGeometry relative="1" as="geometry" />
        </mxCell>
        <mxCell id="sSMObU6DCJ1RL4eeO6b6-14" value="pers_tel" style="ellipse;whiteSpace=wrap;html=1;" vertex="1" parent="1">
          <mxGeometry x="250" y="830" width="90" height="60" as="geometry" />
        </mxCell>
        <mxCell id="sSMObU6DCJ1RL4eeO6b6-23" style="edgeStyle=orthogonalEdgeStyle;rounded=0;orthogonalLoop=1;jettySize=auto;html=1;entryX=0.75;entryY=1;entryDx=0;entryDy=0;" edge="1" parent="1" source="sSMObU6DCJ1RL4eeO6b6-15" target="sSMObU6DCJ1RL4eeO6b6-6">
          <mxGeometry relative="1" as="geometry" />
        </mxCell>
        <mxCell id="sSMObU6DCJ1RL4eeO6b6-15" value="pers_email" style="ellipse;whiteSpace=wrap;html=1;" vertex="1" parent="1">
          <mxGeometry x="380" y="790" width="90" height="60" as="geometry" />
        </mxCell>
        <mxCell id="sSMObU6DCJ1RL4eeO6b6-25" style="edgeStyle=orthogonalEdgeStyle;rounded=0;orthogonalLoop=1;jettySize=auto;html=1;entryX=0.075;entryY=1.017;entryDx=0;entryDy=0;entryPerimeter=0;" edge="1" parent="1" source="sSMObU6DCJ1RL4eeO6b6-24" target="sSMObU6DCJ1RL4eeO6b6-1">
          <mxGeometry relative="1" as="geometry" />
        </mxCell>
        <mxCell id="sSMObU6DCJ1RL4eeO6b6-24" value="id_user" style="ellipse;whiteSpace=wrap;html=1;" vertex="1" parent="1">
          <mxGeometry x="550" y="770" width="90" height="60" as="geometry" />
        </mxCell>
        <mxCell id="sSMObU6DCJ1RL4eeO6b6-27" style="edgeStyle=orthogonalEdgeStyle;rounded=0;orthogonalLoop=1;jettySize=auto;html=1;" edge="1" parent="1" source="sSMObU6DCJ1RL4eeO6b6-26" target="sSMObU6DCJ1RL4eeO6b6-1">
          <mxGeometry relative="1" as="geometry" />
        </mxCell>
        <mxCell id="sSMObU6DCJ1RL4eeO6b6-26" value="user_role" style="ellipse;whiteSpace=wrap;html=1;" vertex="1" parent="1">
          <mxGeometry x="660" y="770" width="90" height="60" as="geometry" />
        </mxCell>
        <mxCell id="sSMObU6DCJ1RL4eeO6b6-29" style="edgeStyle=orthogonalEdgeStyle;rounded=0;orthogonalLoop=1;jettySize=auto;html=1;entryX=1;entryY=0.633;entryDx=0;entryDy=0;entryPerimeter=0;" edge="1" parent="1" source="sSMObU6DCJ1RL4eeO6b6-28" target="sSMObU6DCJ1RL4eeO6b6-1">
          <mxGeometry relative="1" as="geometry" />
        </mxCell>
        <mxCell id="sSMObU6DCJ1RL4eeO6b6-28" value="user_username" style="ellipse;whiteSpace=wrap;html=1;" vertex="1" parent="1">
          <mxGeometry x="750" y="730" width="90" height="60" as="geometry" />
        </mxCell>
        <mxCell id="sSMObU6DCJ1RL4eeO6b6-31" style="edgeStyle=orthogonalEdgeStyle;rounded=0;orthogonalLoop=1;jettySize=auto;html=1;entryX=1;entryY=0.25;entryDx=0;entryDy=0;" edge="1" parent="1" source="sSMObU6DCJ1RL4eeO6b6-30" target="sSMObU6DCJ1RL4eeO6b6-1">
          <mxGeometry relative="1" as="geometry" />
        </mxCell>
        <mxCell id="sSMObU6DCJ1RL4eeO6b6-30" value="user_password" style="ellipse;whiteSpace=wrap;html=1;" vertex="1" parent="1">
          <mxGeometry x="760" y="650" width="90" height="60" as="geometry" />
        </mxCell>
        <mxCell id="sSMObU6DCJ1RL4eeO6b6-41" style="edgeStyle=orthogonalEdgeStyle;rounded=0;orthogonalLoop=1;jettySize=auto;html=1;entryX=1;entryY=0.5;entryDx=0;entryDy=0;strokeColor=default;" edge="1" parent="1" source="sSMObU6DCJ1RL4eeO6b6-40" target="sSMObU6DCJ1RL4eeO6b6-4">
          <mxGeometry relative="1" as="geometry">
            <Array as="points">
              <mxPoint x="660" y="440" />
            </Array>
          </mxGeometry>
        </mxCell>
        <mxCell id="sSMObU6DCJ1RL4eeO6b6-40" value="id_factura" style="ellipse;whiteSpace=wrap;html=1;" vertex="1" parent="1">
          <mxGeometry x="720" y="360" width="90" height="60" as="geometry" />
        </mxCell>
        <mxCell id="sSMObU6DCJ1RL4eeO6b6-46" style="edgeStyle=orthogonalEdgeStyle;rounded=0;orthogonalLoop=1;jettySize=auto;html=1;entryX=1;entryY=0.75;entryDx=0;entryDy=0;strokeColor=default;" edge="1" parent="1" source="sSMObU6DCJ1RL4eeO6b6-42" target="sSMObU6DCJ1RL4eeO6b6-4">
          <mxGeometry relative="1" as="geometry" />
        </mxCell>
        <mxCell id="sSMObU6DCJ1RL4eeO6b6-42" value="num_factura" style="ellipse;whiteSpace=wrap;html=1;" vertex="1" parent="1">
          <mxGeometry x="710" y="450" width="90" height="60" as="geometry" />
        </mxCell>
        <mxCell id="sSMObU6DCJ1RL4eeO6b6-45" style="edgeStyle=orthogonalEdgeStyle;rounded=0;orthogonalLoop=1;jettySize=auto;html=1;entryX=0.75;entryY=1;entryDx=0;entryDy=0;strokeColor=default;" edge="1" parent="1" source="sSMObU6DCJ1RL4eeO6b6-44" target="sSMObU6DCJ1RL4eeO6b6-4">
          <mxGeometry relative="1" as="geometry">
            <Array as="points">
              <mxPoint x="775" y="520" />
              <mxPoint x="610" y="520" />
            </Array>
          </mxGeometry>
        </mxCell>
        <mxCell id="sSMObU6DCJ1RL4eeO6b6-44" value="fac_cliente_id" style="ellipse;whiteSpace=wrap;html=1;" vertex="1" parent="1">
          <mxGeometry x="730" y="530" width="90" height="60" as="geometry" />
        </mxCell>
        <mxCell id="sSMObU6DCJ1RL4eeO6b6-48" style="edgeStyle=orthogonalEdgeStyle;rounded=0;orthogonalLoop=1;jettySize=auto;html=1;entryX=0.5;entryY=1;entryDx=0;entryDy=0;strokeColor=default;" edge="1" parent="1" source="sSMObU6DCJ1RL4eeO6b6-47" target="sSMObU6DCJ1RL4eeO6b6-4">
          <mxGeometry relative="1" as="geometry">
            <Array as="points">
              <mxPoint x="665" y="530" />
              <mxPoint x="580" y="530" />
            </Array>
          </mxGeometry>
        </mxCell>
        <mxCell id="sSMObU6DCJ1RL4eeO6b6-47" value="fac_desc" style="ellipse;whiteSpace=wrap;html=1;" vertex="1" parent="1">
          <mxGeometry x="620" y="540" width="90" height="60" as="geometry" />
        </mxCell>
      </root>
    </mxGraphModel>
  </diagram>
</mxfile>
